<mxfile host="app.diagrams.net" agent="Mozilla/5.0 (Windows NT 10.0; Win64; x64) AppleWebKit/537.36 (KHTML, like Gecko) Chrome/140.0.0.0 Safari/537.36" version="28.2.5">
  <diagram name="Página-1" id="rrR3JAVCXO4Lsw-wPT3y">
    <mxGraphModel dx="1214" dy="624" grid="1" gridSize="10" guides="1" tooltips="1" connect="1" arrows="1" fold="1" page="1" pageScale="1" pageWidth="827" pageHeight="1169" math="0" shadow="0">
      <root>
        <mxCell id="0" />
        <mxCell id="1" parent="0" />
        <mxCell id="-4wxRqZX8vaEymhzz5Xd-1" value="Usuario" style="shape=umlActor;verticalLabelPosition=bottom;verticalAlign=top;html=1;outlineConnect=0;" vertex="1" parent="1">
          <mxGeometry x="450" y="40" width="30" height="60" as="geometry" />
        </mxCell>
        <mxCell id="-4wxRqZX8vaEymhzz5Xd-3" value="V_WishlistButton" style="rounded=0;whiteSpace=wrap;html=1;fillColor=#ffe6cc;strokeColor=#d79b00;" vertex="1" parent="1">
          <mxGeometry x="570" y="80" width="100" height="40" as="geometry" />
        </mxCell>
        <mxCell id="-4wxRqZX8vaEymhzz5Xd-4" value="C_WishlistContext" style="rounded=0;whiteSpace=wrap;html=1;fillColor=#e1d5e7;strokeColor=#9673a6;" vertex="1" parent="1">
          <mxGeometry x="750" y="80" width="100" height="40" as="geometry" />
        </mxCell>
        <mxCell id="-4wxRqZX8vaEymhzz5Xd-5" value="LocalStorage" style="rounded=0;whiteSpace=wrap;html=1;fillColor=#d5e8d4;strokeColor=#82b366;" vertex="1" parent="1">
          <mxGeometry x="980" y="80" width="90" height="40" as="geometry" />
        </mxCell>
        <mxCell id="-4wxRqZX8vaEymhzz5Xd-7" value="" style="endArrow=none;dashed=1;html=1;dashPattern=1 3;strokeWidth=2;rounded=0;entryX=0.5;entryY=1;entryDx=0;entryDy=0;" edge="1" parent="1">
          <mxGeometry width="50" height="50" relative="1" as="geometry">
            <mxPoint x="465" y="480" as="sourcePoint" />
            <mxPoint x="465" y="120" as="targetPoint" />
          </mxGeometry>
        </mxCell>
        <mxCell id="-4wxRqZX8vaEymhzz5Xd-8" value="" style="endArrow=none;dashed=1;html=1;dashPattern=1 3;strokeWidth=2;rounded=0;entryX=0.5;entryY=1;entryDx=0;entryDy=0;" edge="1" parent="1">
          <mxGeometry width="50" height="50" relative="1" as="geometry">
            <mxPoint x="620" y="480" as="sourcePoint" />
            <mxPoint x="620" y="120" as="targetPoint" />
          </mxGeometry>
        </mxCell>
        <mxCell id="-4wxRqZX8vaEymhzz5Xd-9" value="" style="endArrow=none;dashed=1;html=1;dashPattern=1 3;strokeWidth=2;rounded=0;entryX=0.5;entryY=1;entryDx=0;entryDy=0;" edge="1" parent="1">
          <mxGeometry width="50" height="50" relative="1" as="geometry">
            <mxPoint x="800" y="480" as="sourcePoint" />
            <mxPoint x="799.5" y="120" as="targetPoint" />
          </mxGeometry>
        </mxCell>
        <mxCell id="-4wxRqZX8vaEymhzz5Xd-10" value="" style="endArrow=none;dashed=1;html=1;dashPattern=1 3;strokeWidth=2;rounded=0;entryX=0.5;entryY=1;entryDx=0;entryDy=0;" edge="1" parent="1">
          <mxGeometry width="50" height="50" relative="1" as="geometry">
            <mxPoint x="1025" y="480" as="sourcePoint" />
            <mxPoint x="1024.5" y="120" as="targetPoint" />
          </mxGeometry>
        </mxCell>
        <mxCell id="-4wxRqZX8vaEymhzz5Xd-13" value="" style="endArrow=classic;html=1;rounded=0;" edge="1" parent="1">
          <mxGeometry width="50" height="50" relative="1" as="geometry">
            <mxPoint x="470" y="200" as="sourcePoint" />
            <mxPoint x="620" y="200" as="targetPoint" />
          </mxGeometry>
        </mxCell>
        <mxCell id="-4wxRqZX8vaEymhzz5Xd-14" value="Hace clic en el corazón&lt;div&gt;relleno para remover&lt;/div&gt;" style="text;html=1;align=center;verticalAlign=middle;resizable=0;points=[];autosize=1;strokeColor=none;fillColor=none;" vertex="1" parent="1">
          <mxGeometry x="460" y="158" width="150" height="40" as="geometry" />
        </mxCell>
        <mxCell id="-4wxRqZX8vaEymhzz5Xd-15" value="" style="endArrow=classic;html=1;rounded=0;" edge="1" parent="1">
          <mxGeometry width="50" height="50" relative="1" as="geometry">
            <mxPoint x="620" y="220" as="sourcePoint" />
            <mxPoint x="800" y="220" as="targetPoint" />
          </mxGeometry>
        </mxCell>
        <mxCell id="-4wxRqZX8vaEymhzz5Xd-16" value="&lt;font&gt;removeFromWishlist(productId)&lt;/font&gt;" style="text;html=1;align=center;verticalAlign=middle;resizable=0;points=[];autosize=1;strokeColor=none;fillColor=none;" vertex="1" parent="1">
          <mxGeometry x="610" y="198" width="190" height="30" as="geometry" />
        </mxCell>
        <mxCell id="-4wxRqZX8vaEymhzz5Xd-18" value="" style="endArrow=classic;html=1;rounded=0;" edge="1" parent="1">
          <mxGeometry width="50" height="50" relative="1" as="geometry">
            <mxPoint x="800" y="253" as="sourcePoint" />
            <mxPoint x="800" y="273" as="targetPoint" />
            <Array as="points">
              <mxPoint x="840" y="253" />
              <mxPoint x="840" y="273" />
            </Array>
          </mxGeometry>
        </mxCell>
        <mxCell id="-4wxRqZX8vaEymhzz5Xd-20" value="setWishlistItems(&lt;div&gt;items.filter(item =&amp;gt; item.id !== productId))&lt;/div&gt;" style="text;html=1;align=left;verticalAlign=middle;resizable=0;points=[];autosize=1;strokeColor=none;fillColor=none;" vertex="1" parent="1">
          <mxGeometry x="800" y="220" width="240" height="40" as="geometry" />
        </mxCell>
        <mxCell id="-4wxRqZX8vaEymhzz5Xd-21" value="" style="endArrow=classic;html=1;rounded=0;" edge="1" parent="1">
          <mxGeometry width="50" height="50" relative="1" as="geometry">
            <mxPoint x="800" y="310" as="sourcePoint" />
            <mxPoint x="1020" y="310" as="targetPoint" />
          </mxGeometry>
        </mxCell>
        <mxCell id="-4wxRqZX8vaEymhzz5Xd-22" value="local.Storage.setItem(&#39;wishlist&#39;, data)" style="text;html=1;align=center;verticalAlign=middle;resizable=0;points=[];autosize=1;strokeColor=none;fillColor=none;" vertex="1" parent="1">
          <mxGeometry x="790" y="290" width="220" height="30" as="geometry" />
        </mxCell>
        <mxCell id="-4wxRqZX8vaEymhzz5Xd-23" value="" style="endArrow=classic;html=1;rounded=0;" edge="1" parent="1">
          <mxGeometry width="50" height="50" relative="1" as="geometry">
            <mxPoint x="1020" y="360" as="sourcePoint" />
            <mxPoint x="800" y="360" as="targetPoint" />
          </mxGeometry>
        </mxCell>
        <mxCell id="-4wxRqZX8vaEymhzz5Xd-24" value="Confirmación de guardado" style="text;html=1;align=center;verticalAlign=middle;resizable=0;points=[];autosize=1;strokeColor=none;fillColor=none;" vertex="1" parent="1">
          <mxGeometry x="810" y="338" width="160" height="30" as="geometry" />
        </mxCell>
        <mxCell id="-4wxRqZX8vaEymhzz5Xd-25" value="" style="endArrow=classic;html=1;rounded=0;" edge="1" parent="1">
          <mxGeometry width="50" height="50" relative="1" as="geometry">
            <mxPoint x="800" y="382" as="sourcePoint" />
            <mxPoint x="620" y="382" as="targetPoint" />
          </mxGeometry>
        </mxCell>
        <mxCell id="-4wxRqZX8vaEymhzz5Xd-26" value="Estado actualizado" style="text;html=1;align=center;verticalAlign=middle;resizable=0;points=[];autosize=1;strokeColor=none;fillColor=none;" vertex="1" parent="1">
          <mxGeometry x="635" y="360" width="120" height="30" as="geometry" />
        </mxCell>
        <mxCell id="-4wxRqZX8vaEymhzz5Xd-27" value="" style="endArrow=classic;html=1;rounded=0;" edge="1" parent="1">
          <mxGeometry width="50" height="50" relative="1" as="geometry">
            <mxPoint x="620" y="422" as="sourcePoint" />
            <mxPoint x="460" y="422" as="targetPoint" />
          </mxGeometry>
        </mxCell>
        <mxCell id="-4wxRqZX8vaEymhzz5Xd-28" value="Icono cambia a &quot;no favorito&quot;" style="text;html=1;align=center;verticalAlign=middle;resizable=0;points=[];autosize=1;strokeColor=none;fillColor=none;" vertex="1" parent="1">
          <mxGeometry x="460" y="402" width="170" height="30" as="geometry" />
        </mxCell>
      </root>
    </mxGraphModel>
  </diagram>
</mxfile>
